Coordinates
version=1
nRows=14
nColumns=40
inDegrees=yes

Units are S.I. units (second, meters, Newtons, ...)
If the header above contains a line with 'inDegrees', this indicates whether rotational values are in degrees (yes) or radians (no).

endheader
time	pelvis_tilt	pelvis_list	pelvis_rotation	pelvis_tx	pelvis_ty	pelvis_tz	hip_flexion_r	hip_adduction_r	hip_rotation_r	knee_angle_r	knee_angle_r_beta	ankle_angle_r	subtalar_angle_r	mtp_angle_r	hip_flexion_l	hip_adduction_l	hip_rotation_l	knee_angle_l	knee_angle_l_beta	ankle_angle_l	subtalar_angle_l	mtp_angle_l	lumbar_extension	lumbar_bending	lumbar_rotation	arm_flex_r	arm_add_r	arm_rot_r	elbow_flex_r	pro_sup_r	wrist_flex_r	wrist_dev_r	arm_flex_l	arm_add_l	arm_rot_l	elbow_flex_l	pro_sup_l	wrist_flex_l	wrist_dev_l
     19.75000000	     15.00455898	     -6.69811978	    174.33241939	      0.26764556	      0.93338768	     -0.58354240	     37.00292892	     -9.50085196	     -0.26982444	     25.58491516	      0.44654101	      3.46436612	      0.00000000	      0.00000000	     32.94461473	      1.25450091	    -12.70755084	     23.82223988	      0.41577652	      6.27633363	      0.00000000	      0.00000000	    -22.64827712	     -4.93828121	      0.39029392	     21.84575357	    -15.23597344	     28.98077015	     15.21900485	      9.42707020	      0.00000000	      0.00000000	     29.21037261	    -18.53715775	     41.48552480	     20.62334203	     87.77896854	      0.00000000	      0.00000000
     19.75500000	     15.24961166	     -6.90740343	    174.13837753	      0.26847620	      0.93269986	     -0.58382123	     37.46356101	     -9.53453756	     -0.03778898	     25.66814140	      0.44799358	      3.42584238	      0.00000000	      0.00000000	     33.26079882	      1.27661310	    -13.05408549	     23.81725282	      0.41568948	      6.26791942	      0.00000000	      0.00000000	    -22.82451244	     -5.21347073	      0.52579700	     22.08828964	    -15.22064605	     28.90802530	     15.14337066	      9.96460611	      0.00000000	      0.00000000	     29.46897609	    -18.59450794	     41.60637379	     20.71788009	     87.79674776	      0.00000000	      0.00000000
     19.76000000	     15.77743843	     -6.95052236	    174.17404473	      0.26952093	      0.93154547	     -0.58374463	     38.17267269	     -9.50115408	     -0.00582735	     25.78069429	      0.44995800	      3.33232049	      0.00000000	      0.00000000	     33.98992304	      1.20862355	    -13.08712557	     24.00996404	      0.41905293	      6.23459104	      0.00000000	      0.00000000	    -22.71834741	     -5.21483442	      0.52711962	     22.33248468	    -15.21095370	     28.92966948	     15.18395336	      9.09040147	      0.00000000	      0.00000000	     29.64589077	    -18.55721810	     41.38324179	     20.71455001	     87.78456290	      0.00000000	      0.00000000
     19.76500000	     16.11198019	     -6.99769852	    174.22000200	      0.27044457	      0.93073022	     -0.58366296	     38.65255566	     -9.53190044	     -0.08326895	     25.87977019	      0.45168720	      3.33202925	      0.00000000	      0.00000000	     34.45609339	      1.18891389	    -13.11815112	     24.09536776	      0.42054350	      6.18318185	      0.00000000	      0.00000000	    -22.83309540	     -5.22859560	      0.44913032	     22.66068160	    -15.14711444	     28.96389657	     14.98761274	      9.48418009	      0.00000000	      0.00000000	     29.82922536	    -18.57414661	     41.12098435	     20.78349794	     87.78639826	      0.00000000	      0.00000000
     19.77000000	     16.54475794	     -7.16524348	    174.17268221	      0.27152171	      0.92969067	     -0.58371828	     39.35623169	     -9.58228964	      0.04002044	     26.07546672	      0.45510275	      3.23645445	      0.00000000	      0.00000000	     35.05671556	      1.20584595	    -13.31040637	     24.21750428	      0.42267519	      6.14138240	      0.00000000	      0.00000000	    -22.81568372	     -5.40615415	      0.46699602	     22.90117734	    -15.16208200	     29.19703333	     15.05323811	      8.95232111	      0.00000000	      0.00000000	     30.04616420	    -18.61894733	     41.13618632	     20.85847279	     87.81527529	      0.00000000	      0.00000000
     19.77500000	     16.97723395	     -6.99508160	    174.32614014	      0.27255003	      0.92875453	     -0.58350572	     39.79622865	     -9.45615045	     -0.18204383	     26.02089606	      0.45415031	      3.10694615	      0.00000000	      0.00000000	     35.70774654	      1.01250776	    -13.13948069	     24.48240198	      0.42729852	      6.17280068	      0.00000000	      0.00000000	    -22.83848743	     -5.15184265	      0.45260600	     23.18099128	    -15.16532419	     29.04344511	     14.93563535	      9.23713984	      0.00000000	      0.00000000	     30.26350254	    -18.49928155	     40.82138875	     20.81212971	     87.81321954	      0.00000000	      0.00000000
     19.78000000	     17.42446844	     -6.92648572	    174.58382052	      0.27356609	      0.92773253	     -0.58306123	     40.33194842	     -9.51761736	     -0.47410876	     26.12643075	      0.45599224	      3.10527166	      0.00000000	      0.00000000	     36.37215446	      1.00432521	    -12.88838394	     24.69493809	      0.43100798	      6.10326560	      0.00000000	      0.00000000	    -22.82727620	     -4.96351474	      0.27839321	     23.43642333	    -15.18747249	     29.17432905	     14.83952130	      9.68512660	      0.00000000	      0.00000000	     30.46397799	    -18.47922727	     40.73441049	     20.85922545	     87.79697081	      0.00000000	      0.00000000
     19.78500000	     17.70196013	     -6.88538984	    174.63652476	      0.27443759	      0.92708206	     -0.58309334	     40.68948835	     -9.47216442	     -0.56047142	     26.15398944	      0.45647323	      3.00984830	      0.00000000	      0.00000000	     36.79106582	      0.89869195	    -12.91815257	     24.82922609	      0.43335175	      6.08935551	      0.00000000	      0.00000000	    -22.99976403	     -4.89793314	      0.23765120	     23.75962164	    -15.12336601	     29.05777009	     14.79797883	      9.21363366	      0.00000000	      0.00000000	     30.67759845	    -18.42675458	     40.37459179	     20.84841079	     87.81580676	      0.00000000	      0.00000000
     19.79000000	     18.13593276	     -6.89495058	    174.64313343	      0.27556337	      0.92605029	     -0.58320738	     41.30418277	     -9.40885321	     -0.52749931	     26.28056099	      0.45868232	      2.92659773	      0.00000000	      0.00000000	     37.41157572	      0.78459563	    -12.98363309	     25.01435308	      0.43658282	      6.07632585	      0.00000000	      0.00000000	    -22.97060240	     -4.90168234	      0.27725297	     24.00902457	    -15.09826213	     29.00408934	     14.78224507	      8.93452751	      0.00000000	      0.00000000	     30.91873832	    -18.43157572	     40.37994794	     20.86951430	     87.81974386	      0.00000000	      0.00000000
     19.79500000	     18.36064101	     -7.21812320	    174.34092699	      0.27649405	      0.92539250	     -0.58391368	     41.87610845	     -9.42064993	      0.00461397	     26.51211618	      0.46272372	      2.89255929	      0.00000000	      0.00000000	     37.65631895	      0.80672257	    -13.50800606	     24.90993481	      0.43476038	      5.93433296	      0.00000000	      0.00000000	    -23.13341238	     -5.37475078	      0.49714343	     24.26436955	    -14.97330970	     28.35355829	     14.12836512	     14.15931903	      0.00000000	      0.00000000	     31.27211057	    -18.46051075	     40.57842856	     20.81263373	     87.88637709	      0.00000000	      0.00000000
     19.80000000	     18.51169303	     -6.71425952	    174.83029392	      0.27717790	      0.92507639	     -0.58318683	     41.76778488	     -9.32863929	     -0.85511885	     26.32724966	      0.45949719	      2.81539480	      0.00000000	      0.00000000	     38.03903824	      0.59191181	    -12.85680672	     25.26161226	      0.44089831	      6.06197269	      0.00000000	      0.00000000	    -23.48444323	     -4.63714775	      0.21495016	     24.53516808	    -15.13851872	     28.89090617	     14.78289810	      9.05865901	      0.00000000	      0.00000000	     31.48252985	    -18.33656218	     40.31439544	     20.82440534	     87.80741006	      0.00000000	      0.00000000
     19.80500000	     18.89592819	     -6.70455057	    174.84614434	      0.27819213	      0.92418336	     -0.58338748	     42.28485568	     -9.25186751	     -0.82154059	     26.39960435	      0.46076002	      2.73914644	      0.00000000	      0.00000000	     38.59779875	      0.47971324	    -12.88127602	     25.43613862	      0.44394437	      6.02684251	      0.00000000	      0.00000000	    -23.49534012	     -4.62557754	      0.24184013	     24.78300152	    -15.08474301	     28.64572274	     14.78827899	      8.74771833	      0.00000000	      0.00000000	     31.70702739	    -18.33861780	     40.19774992	     20.84530785	     87.82231205	      0.00000000	      0.00000000
     19.81000000	     19.08270259	     -6.71308685	    174.88760704	      0.27903644	      0.92365914	     -0.58342888	     42.58870404	     -9.26510159	     -0.88296108	     26.49246997	      0.46238083	      2.65436320	      0.00000000	      0.00000000	     38.91238003	      0.44111599	    -12.93004051	     25.54676321	      0.44587513	      5.99295980	      0.00000000	      0.00000000	    -23.72108013	     -4.61517539	      0.22708477	     25.03602794	    -15.09209586	     28.52399061	     14.80531137	      8.75852007	      0.00000000	      0.00000000	     31.99018929	    -18.32843616	     40.25699462	     20.84982426	     87.81407890	      0.00000000	      0.00000000
     19.81500000	     19.29905231	     -6.82367439	    174.84936447	      0.27990354	      0.92303979	     -0.58359849	     42.97879737	     -9.28949505	     -0.76194907	     26.61065361	      0.46444352	      2.65935764	      0.00000000	      0.00000000	     39.21097951	      0.45292440	    -13.08007773	     25.55894349	      0.44608772	      5.93246240	      0.00000000	      0.00000000	    -23.89362702	     -4.74917669	      0.23948292	     25.26317266	    -15.10026225	     28.49495186	     14.87979263	      8.52569262	      0.00000000	      0.00000000	     32.25313261	    -18.34197906	     40.23795336	     20.87506550	     87.81342772	      0.00000000	      0.00000000
